Coordinates
version=1
nRows=6
nColumns=63
inDegrees=yes

Units are S.I. units (second, meters, Newtons, ...)
If the header above contains a line with 'inDegrees', this indicates whether rotational values are in degrees (yes) or radians (no).

endheader
time	pelvis_tilt	pelvis_list	pelvis_rotation	pelvis_tx	pelvis_ty	pelvis_tz	hip_flexion_r	hip_adduction_r	hip_rotation_r	knee_angle_r	knee_angle_r_beta	ankle_angle_r	subtalar_angle_r	mtp_angle_r	hip_flexion_l	hip_adduction_l	hip_rotation_l	knee_angle_l	knee_angle_l_beta	ankle_angle_l	subtalar_angle_l	mtp_angle_l	L5_S1_Flex_Ext	L5_S1_Lat_Bending	L5_S1_axial_rotation	L4_L5_Flex_Ext	L4_L5_Lat_Bending	L4_L5_axial_rotation	L3_L4_Flex_Ext	L3_L4_Lat_Bending	L3_L4_axial_rotation	L2_L3_Flex_Ext	L2_L3_Lat_Bending	L2_L3_axial_rotation	L1_L2_Flex_Ext	L1_L2_Lat_Bending	L1_L2_axial_rotation	L1_T12_Flex_Ext	L1_T12_Lat_Bending	L1_T12_axial_rotation	Abs_r3	Abs_r2	Abs_r1	Abs_t1	Abs_t2	neck_flexion	neck_bending	neck_rotation	arm_flex_r	arm_add_r	arm_rot_r	elbow_flex_r	pro_sup_r	wrist_flex_r	wrist_dev_r	arm_flex_l	arm_add_l	arm_rot_l	elbow_flex_l	pro_sup_l	wrist_flex_l	wrist_dev_l
3.200000	-1.218797	-3.217541	77.257418	0.113531	0.969694	0.323195	-1.378830	0.753159	-9.788582	0.301662	0.005265	12.430472	16.744951	0.000000	-0.371752	0.792760	-3.535767	2.176297	0.037984	3.255397	-16.899405	0.000000	-0.187669	0.414101	2.038846	-0.348520	0.550754	2.166274	-0.308322	1.006845	2.166274	-0.214487	1.006845	1.783990	-0.174270	0.844435	1.656563	-0.107234	0.641442	1.529135	-1.340502	4.684393	11.339451	0.000000	0.000000	12.615933	-5.352748	-2.562896	7.657077	-16.117947	79.496196	17.465602	59.123771	-16.331191	-10.030406	12.417768	-14.450703	104.406144	20.759445	69.779442	-21.149269	-1.041160
3.216667	-1.247617	-3.280828	77.268391	0.113669	0.969589	0.322935	-1.359006	0.731540	-9.819633	0.310565	0.005420	12.279789	16.792726	0.000000	-0.333185	0.810912	-3.524200	2.157788	0.037661	3.127359	-16.943831	0.000000	-0.178035	0.412118	1.992459	-0.330628	0.548117	2.116988	-0.292493	1.002024	2.116988	-0.203476	1.002024	1.743402	-0.165323	0.840391	1.618873	-0.101729	0.638371	1.494345	-1.271684	4.661961	11.081461	0.000000	0.000000	12.776931	-5.256548	-2.233341	7.829703	-15.725791	84.009321	16.628321	55.363209	-15.920929	-10.501364	12.376107	-14.380180	105.369468	20.614504	68.807731	-20.652838	-1.096082
3.233333	-1.271904	-3.353059	77.305273	0.113779	0.969493	0.322724	-1.321264	0.717789	-9.854807	0.317611	0.005543	12.167690	16.826649	0.000000	-0.275470	0.821221	-3.503734	2.152585	0.037570	3.011321	-16.946624	0.000000	-0.168200	0.410404	1.943982	-0.312364	0.545838	2.065480	-0.276335	0.997857	2.065480	-0.192235	0.997857	1.700984	-0.156190	0.836896	1.579485	-0.096109	0.635716	1.457986	-1.201433	4.642574	10.811842	0.000000	0.000000	12.993103	-5.157213	-1.944788	8.040237	-15.247484	89.576246	15.566847	50.762098	-15.402469	-10.955461	12.305814	-14.306000	106.207154	20.436846	67.373173	-20.007946	-1.253010
3.250000	-1.294004	-3.422958	77.359481	0.113876	0.969420	0.322556	-1.277362	0.708042	-9.900977	0.323005	0.005638	12.091730	16.856591	0.000000	-0.217459	0.829537	-3.471956	2.144409	0.037427	2.877709	-16.950830	0.000000	-0.159710	0.408282	1.898028	-0.296597	0.543016	2.016655	-0.262388	0.992698	2.016655	-0.182533	0.992698	1.660775	-0.148307	0.832570	1.542148	-0.091258	0.632429	1.423521	-1.140793	4.618572	10.556263	0.000000	0.000000	13.240101	-5.065081	-1.740992	8.281171	-14.707191	96.047984	14.327863	45.542444	-14.858120	-11.440462	12.224784	-14.241213	106.959611	20.245182	65.610395	-19.364112	-1.602042
3.266667	-1.313869	-3.495059	77.435338	0.113931	0.969378	0.322435	-1.223438	0.702274	-9.971945	0.326581	0.005700	12.020697	16.891560	0.000000	-0.142153	0.833439	-3.451885	2.154365	0.037601	2.756119	-16.920885	0.000000	-0.151700	0.406359	1.856736	-0.281722	0.540458	1.972782	-0.249228	0.988022	1.972782	-0.173378	0.988022	1.624644	-0.140869	0.828648	1.508598	-0.086681	0.629451	1.392552	-1.083578	4.596818	10.326610	0.000000	0.000000	13.504108	-5.004201	-1.623026	8.535220	-14.134431	102.995986	12.976593	39.875713	-14.221896	-11.934148	12.133840	-14.180386	107.522508	20.044270	63.545552	-18.642258	-2.077990
3.283333	-1.323123	-3.565359	77.552571	0.113932	0.969368	0.322393	-1.165421	0.712417	-10.096370	0.329571	0.005752	11.951157	16.924760	0.000000	-0.051092	0.823447	-3.418425	2.182002	0.038083	2.653973	-16.879111	0.000000	-0.145163	0.404972	1.818882	-0.269583	0.538613	1.932562	-0.238489	0.984649	1.932562	-0.165907	0.984649	1.591522	-0.134799	0.825819	1.477842	-0.082946	0.627301	1.364162	-1.036887	4.581123	10.116076	0.000000	0.000000	13.772069	-4.962498	-1.612187	8.802027	-13.542817	110.235341	11.553146	33.944285	-13.535079	-12.411722	12.081662	-14.123985	108.090632	19.868184	61.476513	-18.113341	-2.581728
